<svg width="52" height="52" viewBox="0 0 52 52" fill="none" xmlns="http://www.w3.org/2000/svg">
<path d="M26.7329 25.6134C26.8869 25.6817 26.9873 25.7558 27.1011 25.8794C27.1317 25.9123 27.1622 25.9453 27.1937 25.9792C27.2421 26.0322 27.2421 26.0322 27.2915 26.0863C27.3422 26.1411 27.3422 26.1411 27.394 26.1971C27.4955 26.307 27.5966 26.4172 27.6978 26.5275C27.7512 26.5854 27.8047 26.6433 27.8582 26.7012C27.9317 26.7807 28.0052 26.8603 28.0786 26.94C28.2463 27.1222 28.4152 27.3033 28.5846 27.4841C28.8527 27.7704 29.1191 28.057 29.3735 28.3556C29.4357 28.427 29.4357 28.427 29.4991 28.4998C30.3656 29.5005 31.043 30.6123 31.6079 31.8087C31.6291 31.8536 31.6504 31.8986 31.6722 31.9449C31.6951 31.9933 31.718 32.0418 31.7416 32.0918C31.7647 32.1406 31.7878 32.1894 31.8116 32.2396C31.857 32.3358 31.9021 32.432 31.947 32.5284C31.9674 32.572 31.9879 32.6156 32.009 32.6605C32.0272 32.6995 32.0453 32.7384 32.064 32.7786C32.1141 32.8833 32.1141 32.8833 32.2173 32.9767C32.3696 32.9978 32.3696 32.9978 32.522 32.9767C32.6212 32.8279 32.6395 32.7747 32.6596 32.6055C32.6653 32.5634 32.6709 32.5213 32.6767 32.4779C32.6878 32.3896 32.6985 32.3013 32.7088 32.2129C32.7354 32.0186 32.7538 31.8904 32.8693 31.7288C32.9922 31.6477 33.0461 31.6317 33.1917 31.6373C33.2354 31.639 33.2791 31.6406 33.3242 31.6423C33.5687 31.6635 33.8123 31.6926 34.0555 31.7262C34.2255 31.7488 34.3374 31.7622 34.5024 31.7072C34.4811 31.4285 34.4249 31.283 34.2422 31.0724C34.1801 31.0004 34.1801 31.0004 34.1168 30.927C33.9915 30.7897 33.8637 30.6569 33.7297 30.5281C33.64 30.4385 33.5573 30.3457 33.4747 30.2496C33.2884 30.0351 33.0951 29.8281 32.8997 29.6219C32.8286 29.5467 32.7576 29.4715 32.6866 29.3962C32.651 29.3585 32.6154 29.3208 32.5787 29.2819C32.4082 29.1014 32.238 28.9207 32.0681 28.7396C32.0378 28.7075 32.0075 28.6754 31.9763 28.6423C31.7661 28.418 31.7661 28.418 31.7095 28.3048C35.6978 28.3048 39.6862 28.3048 43.7954 28.3048C43.8001 30.0031 43.8001 30.0031 43.8049 31.7357C43.8063 32.092 43.8077 32.4483 43.8091 32.8153C43.8098 33.2535 43.8098 33.2535 43.81 33.4592C43.8101 33.6016 43.8107 33.744 43.8115 33.8863C43.8126 34.0689 43.8129 34.2514 43.8126 34.4339C43.8127 34.5313 43.8135 34.6286 43.8144 34.7259C43.8105 35.8126 43.4652 36.6873 42.7258 37.4835C42.0514 38.1324 41.231 38.4191 40.3084 38.4164C40.2265 38.4164 40.2265 38.4164 40.1429 38.4165C39.96 38.4166 39.7771 38.4163 39.5942 38.416C39.4631 38.416 39.3319 38.416 39.2008 38.4161C38.9185 38.4161 38.6362 38.4159 38.3539 38.4156C37.9458 38.4152 37.5376 38.4151 37.1294 38.415C36.4672 38.4149 35.805 38.4146 35.1427 38.4141C34.4995 38.4136 33.8563 38.4133 33.2131 38.4131C33.153 38.413 33.153 38.413 33.0916 38.413C32.7783 38.4129 32.465 38.4128 32.1516 38.4127C30.6162 38.4122 29.0808 38.4112 27.5454 38.4103C27.5454 34.9414 27.5454 31.4725 27.5454 27.8986C26.7662 27.9237 26.7662 27.9237 25.9712 27.9493C25.9712 31.4015 25.9712 34.8536 25.9712 38.4103C22.6697 38.4164 22.6697 38.4164 21.2896 38.4177C20.9737 38.418 20.6579 38.4183 20.342 38.4186C20.3024 38.4187 20.2628 38.4187 20.222 38.4188C19.5837 38.4194 18.9454 38.4206 18.307 38.422C17.6515 38.4235 16.9959 38.4243 16.3404 38.4246C15.9362 38.4248 15.5319 38.4255 15.1277 38.4267C14.8173 38.4276 14.5069 38.4277 14.1965 38.4275C14.0695 38.4276 13.9425 38.4279 13.8155 38.4284C13.6415 38.4292 13.4677 38.429 13.2937 38.4286C13.2439 38.429 13.1942 38.4295 13.1428 38.4299C12.1797 38.4238 11.367 38.0091 10.6765 37.3597C9.96084 36.619 9.70406 35.7598 9.70967 34.7558C9.7097 34.6841 9.70969 34.6123 9.70963 34.5406C9.70961 34.3496 9.7102 34.1587 9.71091 33.9678C9.71149 33.7881 9.71152 33.6085 9.71159 33.4289C9.71212 32.9047 9.71354 32.3805 9.71485 31.8563C9.71695 30.6843 9.71904 29.5123 9.7212 28.3048C13.7096 28.3048 17.6979 28.3048 21.8071 28.3048C21.4644 28.7047 21.4644 28.7047 21.344 28.8331C21.3032 28.8766 21.3032 28.8766 21.2615 28.9211C21.2332 28.9513 21.2048 28.9815 21.1755 29.0126C21.1301 29.0611 21.1301 29.0611 21.0837 29.1107C20.9189 29.2866 20.7536 29.4623 20.5884 29.6378C20.5383 29.6911 20.5383 29.6911 20.4871 29.7455C20.4234 29.8133 20.3597 29.8809 20.2958 29.9485C20.1113 30.1446 19.9323 30.3446 19.7558 30.5479C19.6521 30.6661 19.5441 30.7801 19.4363 30.8947C19.1995 31.1573 19.0142 31.3913 19.0142 31.7579C19.4245 31.7271 19.4245 31.7271 19.833 31.6786C19.9899 31.6609 20.142 31.6485 20.2996 31.6437C20.3413 31.6424 20.383 31.6411 20.4259 31.6397C20.5677 31.6609 20.6008 31.6982 20.6899 31.8087C20.7259 31.9223 20.7259 31.9223 20.7493 32.0533C20.7623 32.124 20.7623 32.124 20.7755 32.1962C20.7882 32.2699 20.7882 32.2699 20.801 32.3451C20.81 32.3944 20.819 32.4437 20.8283 32.4946C20.8931 32.8544 20.8931 32.8544 20.8931 32.9767C21.0353 33.0202 21.0353 33.0202 21.1978 33.0275C21.3784 32.8832 21.4664 32.7161 21.5659 32.5101C21.5809 32.4794 21.5959 32.4487 21.6114 32.4171C21.6952 32.2444 21.7765 32.0705 21.8571 31.8962C22.0346 31.5131 22.2165 31.1416 22.4354 30.7798C22.5139 30.6478 22.5843 30.5138 22.6545 30.3773C22.9577 29.8166 23.3558 29.2974 23.761 28.8067C23.8462 28.7044 23.8462 28.7044 23.9399 28.5587C23.9735 28.5587 24.007 28.5587 24.0415 28.5587C24.0542 28.5298 24.0669 28.501 24.08 28.4712C24.1524 28.3385 24.2374 28.2415 24.3399 28.1302C24.3808 28.0856 24.4217 28.041 24.4638 27.995C24.5088 27.9464 24.5538 27.8978 24.6001 27.8478C24.6482 27.7956 24.6963 27.7433 24.7443 27.6911C24.847 27.5795 24.9499 27.4682 25.053 27.357C25.1531 27.2489 25.2527 27.1402 25.3517 27.0309C25.7958 26.5422 26.2635 26.0777 26.7329 25.6134Z" fill="#35C66B"/>
<path d="M23.4319 8.94319C23.5118 8.94297 23.5917 8.94271 23.6716 8.94241C23.8869 8.94173 24.1022 8.9417 24.3175 8.94183C24.4981 8.94188 24.6786 8.94163 24.8592 8.94139C25.2856 8.94083 25.7121 8.9408 26.1385 8.94111C26.5766 8.94142 27.0146 8.94079 27.4527 8.93971C27.8305 8.93881 28.2083 8.93851 28.5861 8.93868C28.811 8.93877 29.0359 8.93864 29.2608 8.93793C29.4725 8.93729 29.6842 8.9374 29.8959 8.93805C29.9729 8.93817 30.05 8.93804 30.1271 8.93762C31.0729 8.9328 31.9067 9.07806 32.614 9.75477C33.2373 10.4081 33.4121 11.1385 33.4001 12.0304C33.3999 12.0926 33.3997 12.1548 33.3995 12.2188C33.3986 12.4149 33.3967 12.6109 33.3948 12.807C33.394 12.941 33.3933 13.075 33.3927 13.209C33.391 13.5352 33.3885 13.8614 33.3853 14.1876C33.422 14.1875 33.4588 14.1873 33.4967 14.1872C34.3941 14.1838 35.2915 14.1813 36.1889 14.1797C36.6228 14.1789 37.0568 14.1779 37.4908 14.1761C37.8693 14.1746 38.2479 14.1736 38.6264 14.1733C38.8266 14.1731 39.0268 14.1726 39.227 14.1715C39.416 14.1705 39.6049 14.1702 39.7939 14.1704C39.8952 14.1703 39.9964 14.1695 40.0977 14.1687C40.7012 14.1707 41.2766 14.2612 41.8149 14.5431C41.8511 14.5607 41.8873 14.5783 41.9246 14.5964C42.7494 15.0198 43.3443 15.7464 43.6429 16.6209C43.7723 17.07 43.8029 17.5038 43.8012 17.9685C43.8012 18.0471 43.8012 18.0471 43.8012 18.1273C43.8012 18.2957 43.8008 18.4641 43.8004 18.6326C43.8003 18.737 43.8002 18.8415 43.8002 18.9459C43.8 19.3318 43.7992 19.7177 43.7986 20.1036C43.7975 20.9667 43.7965 21.8297 43.7954 22.7189C41.0806 22.7189 38.3659 22.7189 35.5689 22.7189C35.6024 22.501 35.6359 22.2832 35.6704 22.0587C35.6874 21.8236 35.6874 21.5898 35.6863 21.3541C35.686 21.2917 35.6857 21.2292 35.6854 21.1649C35.6715 20.1247 35.3946 19.0658 34.6675 18.2882C33.9914 17.6525 33.2246 17.4601 32.3232 17.4745C31.0454 17.5233 29.8522 18.2312 28.9673 19.1134C28.9033 19.1771 28.9033 19.1771 28.838 19.2421C28.7968 19.2834 28.7557 19.3247 28.7134 19.3673C28.6567 19.4233 28.6567 19.4233 28.5989 19.4804C27.74 20.3728 27.2458 21.5374 26.7837 22.6681C26.6448 22.5986 26.6345 22.5262 26.5754 22.3836C26.5549 22.335 26.5344 22.2863 26.5133 22.2362C26.4915 22.1839 26.4697 22.1316 26.4473 22.0777C26.0455 21.1352 25.5717 20.3044 24.9048 19.5196C24.8757 19.4836 24.8465 19.4476 24.8165 19.4105C24.5743 19.118 24.2892 18.8894 23.9907 18.6564C23.9585 18.6298 23.9263 18.6032 23.8931 18.5758C23.3735 18.1597 22.7432 17.8425 22.1118 17.6407C22.0617 17.6246 22.0115 17.6084 21.9599 17.5917C21.0911 17.3519 20.159 17.4326 19.3639 17.8546C18.5538 18.3566 18.1446 19.1698 17.9319 20.0719C17.836 20.4862 17.7863 20.8907 17.7859 21.316C17.7853 21.3501 17.7847 21.3842 17.784 21.4194C17.7828 21.86 17.8475 22.2736 17.897 22.7189C15.199 22.7189 12.501 22.7189 9.7212 22.7189C9.71701 21.8223 9.71282 20.9258 9.7085 20.0021C9.70665 19.7205 9.7048 19.4389 9.7029 19.1488C9.70198 18.8011 9.70198 18.8011 9.70181 18.6376C9.7015 18.525 9.70079 18.4125 9.69975 18.2999C9.68938 17.1176 9.82345 16.1512 10.6753 15.2629C10.7124 15.2265 10.7494 15.19 10.7876 15.1525C10.8205 15.1197 10.8533 15.0869 10.8872 15.0531C11.6168 14.3696 12.5304 14.1708 13.497 14.1761C13.5691 14.1761 13.6412 14.1761 13.7133 14.176C13.9076 14.176 14.1019 14.1766 14.2962 14.1773C14.4998 14.178 14.7033 14.178 14.9069 14.1781C15.2918 14.1784 15.6767 14.1793 16.0615 14.1803C16.4999 14.1814 16.9384 14.182 17.3768 14.1825C18.2781 14.1836 19.1793 14.1853 20.0806 14.1876C20.0801 14.1341 20.0801 14.1341 20.0795 14.0796C20.0765 13.7412 20.0742 13.4029 20.0727 13.0645C20.0719 12.8906 20.0708 12.7167 20.0691 12.5428C20.0671 12.3423 20.0664 12.1417 20.0657 11.9411C20.0649 11.8796 20.0641 11.8181 20.0633 11.7546C20.0632 10.982 20.2877 10.3486 20.8231 9.78591C21.5756 9.05188 22.417 8.94132 23.4319 8.94319ZM22.2642 11.3946C21.8475 12.2279 22.1802 13.2562 22.1626 14.1876C25.179 14.1876 28.1954 14.1876 31.3032 14.1876C31.4368 12.6981 31.4368 12.6981 31.1001 11.3439C30.9037 11.2313 30.7245 11.2294 30.5012 11.2291C30.4672 11.2289 30.4331 11.2287 30.398 11.2285C30.2843 11.2279 30.1706 11.2281 30.0569 11.2284C29.9752 11.2281 29.8936 11.2279 29.8119 11.2276C29.5903 11.2269 29.3687 11.2269 29.1471 11.227C28.9621 11.227 28.7771 11.2268 28.5921 11.2265C28.1557 11.226 27.7193 11.226 27.2828 11.2263C26.8326 11.2266 26.3823 11.2259 25.9321 11.2249C25.5454 11.224 25.1588 11.2237 24.7722 11.2238C24.5413 11.2239 24.3104 11.2238 24.0795 11.2231C23.8624 11.2224 23.6453 11.2225 23.4283 11.2232C23.3486 11.2233 23.269 11.2232 23.1893 11.2228C23.0805 11.2222 22.9718 11.2227 22.8631 11.2233C22.8022 11.2233 22.7414 11.2233 22.6787 11.2233C22.5017 11.2442 22.4059 11.2885 22.2642 11.3946Z" fill="#35C66B"/>
<path d="M35.1998 24.3092C35.294 24.3093 35.3881 24.3092 35.4823 24.3091C35.736 24.309 35.9896 24.3108 36.2433 24.3129C36.5091 24.3148 36.7749 24.315 37.0407 24.3154C37.5431 24.3163 38.0456 24.3188 38.5481 24.3219C39.1205 24.3253 39.6929 24.3269 40.2653 24.3285C41.442 24.3316 42.6187 24.3372 43.7954 24.3438C43.7954 25.0979 43.7954 25.852 43.7954 26.629C43.6321 26.6698 43.5216 26.6862 43.3579 26.6866C43.3108 26.6868 43.2637 26.6871 43.2151 26.6873C43.1377 26.6873 43.1377 26.6873 43.0588 26.6873C43.0039 26.6875 42.9489 26.6877 42.8923 26.6879C42.7076 26.6885 42.5228 26.6887 42.3381 26.6889C42.2059 26.6892 42.0737 26.6895 41.9415 26.6899C40.7346 26.6928 39.5278 26.6919 38.3209 26.6904C38.1594 26.6902 37.998 26.69 37.8365 26.6898C37.7763 26.6897 37.7763 26.6897 37.7149 26.6896C37.065 26.6889 36.4153 26.6901 35.7655 26.6921C35.0979 26.6941 34.4304 26.6942 33.7628 26.6925C33.3882 26.6915 33.0135 26.6915 32.6389 26.6936C32.2863 26.6956 31.9338 26.695 31.5812 26.6927C31.4519 26.6923 31.3227 26.6927 31.1935 26.6941C30.0955 26.7049 30.0955 26.7049 29.7414 26.3856C29.6682 26.2985 29.5963 26.2104 29.5259 26.1211C29.4345 26.0419 29.3416 25.9644 29.2466 25.8895C29.2012 25.8527 29.1558 25.8159 29.1091 25.778C29.0089 25.6976 28.9086 25.6175 28.808 25.5376C28.7569 25.4966 28.7057 25.4556 28.6531 25.4134C28.6063 25.3763 28.5595 25.3391 28.5112 25.3009C28.4605 25.2545 28.4605 25.2545 28.4087 25.2071C28.4087 25.1736 28.4087 25.1401 28.4087 25.1055C28.4739 25.1042 28.539 25.103 28.6062 25.1017C28.8535 25.0968 29.1008 25.0917 29.3481 25.0866C29.4541 25.0844 29.5601 25.0823 29.6661 25.0803C30.2183 25.0695 30.7703 25.0564 31.3221 25.0317C31.3637 25.03 31.4054 25.0282 31.4483 25.0264C32.1665 24.9918 33.0799 24.9306 33.7184 24.5763C34.2168 24.3078 34.6453 24.302 35.1998 24.3092Z" fill="#35C66B"/>
<path d="M9.72118 24.3438C10.9418 24.3346 12.1623 24.3272 13.383 24.3228C13.9498 24.3207 14.5166 24.3178 15.0835 24.3132C15.578 24.3091 16.0724 24.3065 16.5669 24.3056C16.8284 24.3051 17.0898 24.3039 17.3512 24.3009C19.3662 24.2788 19.3662 24.2788 20.2329 24.7501C20.4138 24.806 20.592 24.8442 20.7788 24.8739C20.8192 24.8813 20.8597 24.8887 20.9014 24.8964C21.3205 24.9716 21.7363 25.013 22.1614 25.0308C22.2096 25.0329 22.2579 25.035 22.3076 25.0371C22.8748 25.0607 23.4422 25.0722 24.0098 25.0833C24.1172 25.0855 24.2246 25.0877 24.3321 25.09C24.5907 25.0953 24.8493 25.1005 25.1079 25.1055C24.6914 25.5237 24.2476 25.9042 23.7876 26.2735C23.7526 26.3063 23.7177 26.339 23.6817 26.3727C23.3567 26.6628 23.1345 26.7385 22.704 26.7286C22.6482 26.729 22.5924 26.7293 22.5349 26.7297C22.349 26.7303 22.1633 26.7281 21.9775 26.7259C21.8438 26.7258 21.7102 26.7258 21.5765 26.7261C21.2894 26.7263 21.0022 26.725 20.7151 26.7227C20.2999 26.7194 19.8848 26.7184 19.4696 26.7178C18.7959 26.717 18.1223 26.7143 17.4486 26.7104C16.7944 26.7067 16.1403 26.7038 15.4861 26.7021C15.4458 26.702 15.4054 26.7019 15.3638 26.7018C15.1613 26.7012 14.9588 26.7007 14.7563 26.7002C13.0779 26.696 11.3995 26.6887 9.72118 26.6798C9.72118 25.9089 9.72118 25.138 9.72118 24.3438Z" fill="#35C66B"/>
<path d="M33.3852 19.2657C33.898 19.7541 34.0517 20.6073 34.114 21.289C34.1262 21.7875 34.0748 22.3257 33.7407 22.7188C33.2584 23.1744 32.6002 23.2905 31.9634 23.3473C31.8692 23.3563 31.775 23.3653 31.6808 23.3744C31.6103 23.3812 31.5398 23.3879 31.4693 23.3945C31.1304 23.4264 30.7918 23.461 30.4532 23.4958C30.2809 23.5135 30.1086 23.5311 29.9363 23.5486C29.8218 23.5603 29.7074 23.5721 29.5929 23.5839C29.4301 23.6006 29.2672 23.6171 29.1043 23.6335C29.0556 23.6386 29.0068 23.6436 28.9565 23.6489C28.6877 23.6757 28.425 23.6887 28.1548 23.6837C28.2481 23.3103 28.3633 22.9576 28.5166 22.6046C28.5465 22.5355 28.5465 22.5355 28.5771 22.4649C29.2184 21.0187 30.2794 19.779 31.7602 19.1642C32.3032 18.9767 32.9042 18.9025 33.3852 19.2657Z" fill="#35C66B"/>
<path d="M23.1782 20.0782C23.2638 20.1619 23.3485 20.2465 23.4321 20.3321C23.4668 20.3645 23.5015 20.3968 23.5373 20.4301C24.2221 21.0785 24.7074 21.8993 25.0762 22.7601C25.0931 22.7995 25.1101 22.839 25.1276 22.8796C25.2367 23.1432 25.309 23.4035 25.3618 23.6837C24.7378 23.655 24.1195 23.6036 23.4988 23.5345C23.3293 23.516 23.1597 23.4976 22.9902 23.4794C22.9286 23.4727 22.9286 23.4727 22.8657 23.466C22.5313 23.4303 22.1964 23.402 21.8611 23.3758C21.0741 23.3116 20.2807 23.2131 19.6902 22.6363C19.428 22.3008 19.3933 21.8572 19.3982 21.4462C19.3986 21.4001 19.399 21.3541 19.3994 21.3067C19.4163 20.5999 19.5663 19.7458 20.0964 19.234C21.0597 18.521 22.4289 19.4511 23.1782 20.0782Z" fill="#35C66B"/>
<path d="M25.8188 27.8478C25.8523 27.8478 25.8859 27.8478 25.9204 27.8478C26.0009 28.0087 25.9779 28.182 25.9773 28.3587C25.9773 28.4014 25.9774 28.4441 25.9774 28.4881C25.9775 28.6324 25.9772 28.7768 25.9769 28.9212C25.9769 29.0259 25.9769 29.1307 25.977 29.2354C25.977 29.5167 25.9767 29.7981 25.9763 30.0794C25.976 30.3431 25.976 30.6068 25.976 30.8704C25.9757 31.6423 25.975 32.4143 25.9743 33.1862C25.9733 34.9101 25.9723 36.6341 25.9712 38.4103C21.6644 38.4103 17.3577 38.4103 12.9204 38.4103C12.9204 38.3935 12.9204 38.3768 12.9204 38.3595C17.1769 38.3595 21.4334 38.3595 25.8188 38.3595C25.8188 34.8906 25.8188 31.4218 25.8188 27.8478Z" fill="#35C66B"/>
<path d="M43.6938 17.2345C43.7794 17.3841 43.808 17.4907 43.8076 17.6625C43.8078 17.7295 43.8078 17.7295 43.808 17.7978C43.8075 17.8709 43.8075 17.8709 43.8069 17.9455C43.8069 17.9979 43.807 18.0502 43.807 18.1042C43.8069 18.2737 43.8061 18.4432 43.8053 18.6127C43.8052 18.7174 43.8051 18.8221 43.805 18.9267C43.8045 19.3148 43.8031 19.7029 43.8017 20.0909C43.7997 20.9582 43.7976 21.8254 43.7954 22.7189C41.0806 22.7189 38.3659 22.7189 35.5688 22.7189C35.6024 22.501 35.6359 22.2832 35.6704 22.0587C35.6872 22.0587 35.7039 22.0587 35.7212 22.0587C35.7379 22.2263 35.7547 22.3939 35.772 22.5665C38.3694 22.5665 40.9669 22.5665 43.6431 22.5665C43.641 20.8877 43.641 20.8877 43.6385 19.209C43.6383 18.8843 43.6383 18.8843 43.6382 18.7323C43.6381 18.6262 43.638 18.52 43.6377 18.4139C43.6373 18.2531 43.6373 18.0923 43.6373 17.9315C43.6371 17.8842 43.6369 17.8369 43.6367 17.7881C43.6368 17.7448 43.6369 17.7014 43.6369 17.6568C43.6369 17.6003 43.6369 17.6003 43.6368 17.5427C43.6432 17.4344 43.6642 17.3387 43.6938 17.2345Z" fill="#35C66B"/>
<path d="M31.7095 28.3048C35.6978 28.3048 39.6862 28.3048 43.7954 28.3048C43.7975 29.4496 43.7996 30.5943 43.8017 31.7738C43.8027 32.1356 43.8036 32.4974 43.8045 32.8702C43.805 33.3111 43.805 33.3111 43.8051 33.5174C43.8052 33.6618 43.8056 33.8062 43.8061 33.9507C43.8068 34.1347 43.807 34.3188 43.8069 34.5028C43.8069 34.6025 43.8075 34.7021 43.808 34.8018C43.8079 34.8604 43.8078 34.919 43.8076 34.9794C43.8077 35.0306 43.8078 35.0817 43.8079 35.1344C43.7954 35.2618 43.7954 35.2618 43.6938 35.4142C43.6938 33.1016 43.6938 30.789 43.6938 28.4064C39.8228 28.4231 35.9517 28.4399 31.9634 28.4572C32.0807 28.5745 32.198 28.6918 32.3188 28.8126C32.3811 28.8805 32.4427 28.9491 32.5029 29.0189C32.5319 29.0525 32.5609 29.0861 32.5908 29.1207C32.7043 29.2541 32.8167 29.3884 32.9282 29.5236C32.4295 29.3097 32.0408 28.7189 31.7095 28.3048Z" fill="#35C66B"/>
<path d="M9.72118 17.4884C9.73793 17.4884 9.75469 17.4884 9.77196 17.4884C9.83409 17.7304 9.82953 17.9661 9.8285 18.214C9.82851 18.2618 9.82852 18.3097 9.82852 18.359C9.82848 18.5135 9.8281 18.6679 9.8277 18.8224C9.82762 18.9179 9.82757 19.0135 9.82754 19.109C9.82728 19.4628 9.82657 19.8165 9.82591 20.1703C9.82487 20.961 9.82382 21.7518 9.82274 22.5665C12.4537 22.5665 15.0847 22.5665 17.7954 22.5665C17.7954 22.466 17.7954 22.3654 17.7954 22.2618C17.8122 22.2618 17.8289 22.2618 17.8462 22.2618C17.8629 22.4127 17.8797 22.5635 17.897 22.7189C15.1989 22.7189 12.5009 22.7189 9.72118 22.7189C9.72118 20.9928 9.72118 19.2668 9.72118 17.4884Z" fill="#35C66B"/>
<path d="M43.7954 24.3439C43.7954 25.098 43.7954 25.8521 43.7954 26.629C43.6307 26.6702 43.5213 26.686 43.3563 26.6853C43.3089 26.6852 43.2614 26.6851 43.2125 26.685C43.1605 26.6847 43.1086 26.6843 43.055 26.684C42.9997 26.6838 42.9444 26.6837 42.8874 26.6835C42.7013 26.6829 42.5153 26.6819 42.3292 26.6809C42.1961 26.6804 42.063 26.6799 41.9299 26.6794C41.643 26.6784 41.3561 26.6771 41.0692 26.6758C40.6544 26.6738 40.2396 26.6721 39.8248 26.6705C39.1518 26.6678 38.4788 26.665 37.8058 26.6619C37.152 26.659 36.4982 26.6562 35.8445 26.6535C35.8042 26.6533 35.7639 26.6532 35.7224 26.653C35.5202 26.6522 35.3181 26.6514 35.1159 26.6505C33.4388 26.6437 31.7616 26.6365 30.0845 26.629C30.0845 26.5955 30.0845 26.562 30.0845 26.5275C34.5588 26.5275 39.0331 26.5275 43.6431 26.5275C43.6431 25.8236 43.6431 25.1198 43.6431 24.3947C43.7446 24.3439 43.7446 24.3439 43.7954 24.3439Z" fill="#35C66B"/>
<path d="M9.72118 24.3947C9.77145 24.3947 9.82172 24.3947 9.87352 24.3947C9.87352 25.0985 9.87352 25.8023 9.87352 26.5275C14.3143 26.5275 18.7552 26.5275 23.3306 26.5275C23.3306 26.5442 23.3306 26.561 23.3306 26.5782C18.873 26.5782 14.4154 26.5782 9.82274 26.5782C9.82274 26.6118 9.82274 26.6453 9.82274 26.6798C9.78922 26.6798 9.75571 26.6798 9.72118 26.6798C9.72118 25.9257 9.72118 25.1716 9.72118 24.3947Z" fill="#35C66B"/>
<path d="M23.4209 8.95139C23.502 8.9514 23.5831 8.9514 23.6642 8.95137C23.8835 8.95135 24.1027 8.95165 24.322 8.95201C24.5515 8.95232 24.781 8.95235 25.0104 8.95241C25.4446 8.95257 25.8787 8.95299 26.3128 8.9535C26.8073 8.95407 27.3017 8.95434 27.7961 8.9546C28.8128 8.95513 29.8295 8.95602 30.8462 8.95715C30.8294 9.00743 30.8127 9.0577 30.7954 9.1095C29.7364 9.11069 28.6775 9.11158 27.6185 9.11213C27.1268 9.11239 26.635 9.11275 26.1433 9.11333C25.7147 9.11384 25.286 9.11416 24.8574 9.11428C24.6305 9.11434 24.4036 9.1145 24.1767 9.11487C23.963 9.11521 23.7492 9.11532 23.5355 9.11524C23.4572 9.11526 23.3789 9.11536 23.3006 9.11555C22.5721 9.11728 22.5721 9.11728 22.2134 9.05872C22.2134 9.04196 22.2134 9.0252 22.2134 9.00794C22.6144 8.94235 23.0158 8.95038 23.4209 8.95139Z" fill="#35C66B"/>
<path d="M43.6431 17.4376C43.6599 17.4376 43.6766 17.4376 43.6939 17.4376C43.6939 19.1469 43.6939 20.8562 43.6939 22.6173C41.0462 22.6173 38.3984 22.6173 35.6705 22.6173C35.6171 22.4041 35.6335 22.2723 35.6705 22.0587C35.6872 22.0587 35.704 22.0587 35.7212 22.0587C35.738 22.2263 35.7547 22.3939 35.772 22.5665C38.3695 22.5665 40.9669 22.5665 43.6431 22.5665C43.6431 20.874 43.6431 19.1815 43.6431 17.4376Z" fill="#35C66B"/>
<path d="M22.2642 11.2931C22.2977 11.3098 22.3312 11.3266 22.3657 11.3439C22.3155 11.4193 22.3155 11.4193 22.2642 11.4962C22.2525 11.6471 22.2465 11.7937 22.2449 11.9447C22.2441 11.9889 22.2432 12.033 22.2423 12.0785C22.2396 12.2198 22.2376 12.361 22.2356 12.5023C22.2334 12.6431 22.231 12.7838 22.2284 12.9245C22.2268 13.0121 22.2254 13.0996 22.2243 13.1872C22.2205 13.4073 22.206 13.6154 22.1626 13.8322C22.1459 13.8322 22.1291 13.8322 22.1118 13.8322C22.0593 13.5736 22.0545 13.3269 22.0561 13.0645C22.0562 13.021 22.0562 12.9774 22.0563 12.9326C22.0566 12.7944 22.0572 12.6563 22.0579 12.5182C22.0581 12.4242 22.0584 12.3301 22.0586 12.2361C22.0591 12.0064 22.06 11.7767 22.0611 11.547C22.0946 11.547 22.1281 11.547 22.1626 11.547C22.1961 11.4632 22.2297 11.3794 22.2642 11.2931Z" fill="#35C66B"/>
<path d="M43.7954 24.3439C43.7954 25.098 43.7954 25.8521 43.7954 26.629C43.7451 26.629 43.6949 26.629 43.6431 26.629C43.6431 25.8917 43.6431 25.1543 43.6431 24.3947C43.7446 24.3439 43.7446 24.3439 43.7954 24.3439Z" fill="#35C66B"/>
<path d="M25.2602 23.379C25.3618 23.5314 25.3618 23.5314 25.3618 23.6837C25.0602 23.667 24.7585 23.6502 24.4477 23.6329C24.4477 23.6162 24.4477 23.5994 24.4477 23.5822C24.8499 23.557 24.8499 23.557 25.2602 23.5314C25.2602 23.4811 25.2602 23.4308 25.2602 23.379Z" fill="#35C66B"/>
<path d="M26.5298 22.1603C26.5633 22.1603 26.5968 22.1603 26.6313 22.1603C26.6313 22.1938 26.6313 22.2273 26.6313 22.2618C26.6984 22.2451 26.7654 22.2283 26.8345 22.2111C26.8177 22.3619 26.8009 22.5127 26.7837 22.6681C26.6821 22.6173 26.6821 22.6173 26.6389 22.5124C26.6259 22.4705 26.613 22.4287 26.5996 22.3856C26.5864 22.3437 26.5732 22.3017 26.5595 22.2585C26.5497 22.2261 26.5399 22.1937 26.5298 22.1603Z" fill="#35C66B"/>
<path d="M32.7251 19.0119C32.7418 19.0454 32.7586 19.0789 32.7759 19.1134C32.6418 19.1134 32.5077 19.1134 32.3696 19.1134C32.3696 19.1469 32.3696 19.1805 32.3696 19.215C32.2858 19.215 32.202 19.215 32.1157 19.215C32.1157 19.1647 32.1157 19.1144 32.1157 19.0626C32.3221 19.0233 32.5151 19.0069 32.7251 19.0119Z" fill="#35C66B"/>
<path d="M26.7329 25.6134C26.95 25.6938 27.0511 25.8422 27.1899 26.0197C26.9697 26.0197 26.8881 25.914 26.7329 25.7657C26.7329 25.7155 26.7329 25.6652 26.7329 25.6134Z" fill="#35C66B"/>
<path d="M40.7993 14.2384C40.9836 14.2719 41.168 14.3054 41.3579 14.34C41.1457 14.4815 41.0458 14.4311 40.7993 14.3907C40.7993 14.3405 40.7993 14.2902 40.7993 14.2384Z" fill="#35C66B"/>
<path d="M21.604 23.1759C21.5872 23.2262 21.5705 23.2765 21.5532 23.3283C21.3689 23.3115 21.1845 23.2947 20.9946 23.2775C20.9946 23.2607 20.9946 23.244 20.9946 23.2267C21.1998 23.1945 21.3961 23.1696 21.604 23.1759Z" fill="#35C66B"/>
<path d="M30.7954 19.672C30.8457 19.6888 30.8959 19.7055 30.9477 19.7228C30.7215 19.8736 30.7215 19.8736 30.4907 20.0275C30.585 19.839 30.6206 19.7727 30.7954 19.672Z" fill="#35C66B"/>
<path d="M19.8774 19.4689C19.8942 19.4689 19.9109 19.4689 19.9282 19.4689C19.9346 19.7609 19.9346 19.7609 19.8774 19.8751C19.8272 19.8751 19.7769 19.8751 19.7251 19.8751C19.8203 19.5831 19.8203 19.5831 19.8774 19.4689Z" fill="#35C66B"/>
<path d="M17.9477 19.3673C18.0493 19.5197 18.0493 19.5197 18.037 19.6345C18.0264 19.6752 18.0158 19.7158 18.0049 19.7577C17.9945 19.7987 17.9842 19.8398 17.9735 19.8821C17.9608 19.9289 17.9608 19.9289 17.9477 19.9767C17.931 19.9767 17.9142 19.9767 17.897 19.9767C17.8956 19.9037 17.8946 19.8307 17.8938 19.7577C17.8932 19.717 17.8926 19.6764 17.892 19.6345C17.897 19.5197 17.897 19.5197 17.9477 19.3673Z" fill="#35C66B"/>
<path d="M28.2563 23.379C28.2731 23.4461 28.2899 23.5131 28.3071 23.5822C28.3909 23.5989 28.4747 23.6157 28.561 23.6329C28.561 23.6497 28.561 23.6665 28.561 23.6837C28.427 23.6837 28.2929 23.6837 28.1548 23.6837C28.1883 23.5832 28.2218 23.4826 28.2563 23.379Z" fill="#35C66B"/>
</svg>
